<?xml version="1.0" encoding="UTF-8"?>
<!DOCTYPE svg PUBLIC "-//W3C//DTD SVG 1.1//EN" "http://www.w3.org/Graphics/SVG/1.1/DTD/svg11.dtd">
<svg xmlns="http://www.w3.org/2000/svg" version="1.1" width="200px" height="200px" style="shape-rendering:geometricPrecision; text-rendering:geometricPrecision; image-rendering:optimizeQuality; fill-rule:evenodd; clip-rule:evenodd" xmlns:xlink="http://www.w3.org/1999/xlink">
<g><path style="opacity:1" fill="#153447" d="M -0.5,-0.5 C 66.1667,-0.5 132.833,-0.5 199.5,-0.5C 199.5,66.1667 199.5,132.833 199.5,199.5C 132.833,199.5 66.1667,199.5 -0.5,199.5C -0.5,132.833 -0.5,66.1667 -0.5,-0.5 Z"/></g>
<g><path style="opacity:1" fill="#f50b61" d="M 88.5,21.5 C 102.111,19.5195 114.778,22.0195 126.5,29C 128.731,30.6097 130.731,32.443 132.5,34.5C 130.608,35.4734 128.608,36.1401 126.5,36.5C 104.04,22.2893 83.8736,24.9559 66,44.5C 53.6319,65.9501 56.4652,85.1167 74.5,102C 95.69,115.078 114.857,112.578 132,94.5C 141.051,81.8281 142.884,68.1614 137.5,53.5C 138.5,51.5 139.5,49.5 140.5,47.5C 141.167,46.1667 141.833,46.1667 142.5,47.5C 152.544,72.0714 147.21,92.5714 126.5,109C 100.8,122.659 78.6332,118.492 60,96.5C 46.3858,72.7994 49.2192,51.2994 68.5,32C 74.8282,27.6711 81.4949,24.1711 88.5,21.5 Z"/></g>
<g><path style="opacity:1" fill="#ea0e60" d="M 70.5,87.5 C 69.8333,84.5 69.1667,81.5 68.5,78.5C 68.3336,70.8261 68.5003,63.1594 69,55.5C 80.6667,47.5 92.3333,39.5 104,31.5C 104.427,42.5388 104.76,53.5388 105,64.5C 93.7294,72.549 82.2294,80.2157 70.5,87.5 Z"/></g>
<g><path style="opacity:1" fill="#f10d61" d="M 138.5,35.5 C 140.288,35.2148 141.955,35.5481 143.5,36.5C 139.422,44.9906 135.088,53.3239 130.5,61.5C 128.708,57.6259 127.208,53.6259 126,49.5C 122.584,47.208 119.084,45.0414 115.5,43C 123.181,40.3345 130.847,37.8345 138.5,35.5 Z"/></g>
<g><path style="opacity:1" fill="#1f3347" d="M 99.5,37.5 C 101.25,40.3554 102.083,43.6887 102,47.5C 102.667,52.8333 102.667,58.1667 102,63.5C 92,70.1667 82,76.8333 72,83.5C 71.3333,74.5 71.3333,65.5 72,56.5C 81.4941,50.5142 90.6608,44.1809 99.5,37.5 Z"/></g>
<g><path style="opacity:1" fill="#eb0f60" d="M 93.5,58.5 C 92.5489,57.0813 92.2155,55.4147 92.5,53.5C 94.3925,52.2983 96.2258,50.965 98,49.5C 99.5776,54.118 98.0776,57.118 93.5,58.5 Z"/></g>
<g><path style="opacity:1" fill="#7e2053" d="M 92.5,53.5 C 92.2155,55.4147 92.5489,57.0813 93.5,58.5C 93.1667,59.1667 92.8333,59.8333 92.5,60.5C 91.8333,60.5 91.1667,60.5 90.5,60.5C 91.0654,58.0479 91.7321,55.7146 92.5,53.5 Z"/></g>
<g><path style="opacity:1" fill="#f80962" d="M 85.5,61.5 C 85.4431,62.609 85.1098,63.609 84.5,64.5C 81.5461,66.2805 78.7128,68.2805 76,70.5C 75.3333,67.1667 75.3333,63.8333 76,60.5C 79,58.5 82,56.5 85,54.5C 85.4966,56.8098 85.6633,59.1432 85.5,61.5 Z"/></g>
<g><path style="opacity:1" fill="#ef0c61" d="M 90.5,60.5 C 91.1667,60.5 91.8333,60.5 92.5,60.5C 92.6828,64.7563 90.6828,67.423 86.5,68.5C 86.3253,66.3792 86.6586,64.3792 87.5,62.5C 88.5,61.8333 89.5,61.1667 90.5,60.5 Z"/></g>
<g><path style="opacity:1" fill="#911d56" d="M 85.5,61.5 C 86.1667,61.8333 86.8333,62.1667 87.5,62.5C 86.6586,64.3792 86.3253,66.3792 86.5,68.5C 85.8333,67.1667 85.1667,65.8333 84.5,64.5C 85.1098,63.609 85.4431,62.609 85.5,61.5 Z"/></g>
<g><path style="opacity:1" fill="#fb0862" d="M 105.5,66.5 C 115.604,70.4296 125.604,74.7629 135.5,79.5C 123.5,87.5 111.5,95.5 99.5,103.5C 90.132,99.1592 80.7987,94.8259 71.5,90.5C 83.1521,82.8313 94.4854,74.8313 105.5,66.5 Z"/></g>
<g><path style="opacity:1" fill="#6f2551" d="M 68.5,78.5 C 69.1667,81.5 69.8333,84.5 70.5,87.5C 70.44,88.0431 70.1067,88.3764 69.5,88.5C 68.513,85.2317 68.1796,81.8984 68.5,78.5 Z"/></g>
<g><path style="opacity:1" fill="#e9edef" d="M 66.5,126.5 C 71.1785,126.334 75.8452,126.501 80.5,127C 82.5873,127.792 84.4207,128.959 86,130.5C 86.6667,133.833 86.6667,137.167 86,140.5C 82.1056,143.741 77.6056,145.075 72.5,144.5C 72.5,147.5 72.5,150.5 72.5,153.5C 70.5,153.5 68.5,153.5 66.5,153.5C 66.5,144.5 66.5,135.5 66.5,126.5 Z"/></g>
<g><path style="opacity:1" fill="#e6eaed" d="M 112.5,126.5 C 117.179,126.334 121.845,126.501 126.5,127C 133.705,131.442 134.372,136.775 128.5,143C 125.312,144.316 121.978,144.816 118.5,144.5C 118.5,147.5 118.5,150.5 118.5,153.5C 116.5,153.5 114.5,153.5 112.5,153.5C 112.5,144.5 112.5,135.5 112.5,126.5 Z"/></g>
<g><path style="opacity:1" fill="#b7c1c7" d="M 108.5,127.5 C 102.833,127.5 97.1667,127.5 91.5,127.5C 91.5,136.167 91.5,144.833 91.5,153.5C 90.5067,144.682 90.1734,135.682 90.5,126.5C 96.69,126.177 102.69,126.51 108.5,127.5 Z"/></g>
<g><path style="opacity:1" fill="#eceff2" d="M 108.5,127.5 C 108.5,128.833 108.5,130.167 108.5,131.5C 104.5,131.5 100.5,131.5 96.5,131.5C 96.5,133.5 96.5,135.5 96.5,137.5C 100.167,137.5 103.833,137.5 107.5,137.5C 107.5,139.167 107.5,140.833 107.5,142.5C 103.833,142.5 100.167,142.5 96.5,142.5C 96.5,146.167 96.5,149.833 96.5,153.5C 94.8333,153.5 93.1667,153.5 91.5,153.5C 91.5,144.833 91.5,136.167 91.5,127.5C 97.1667,127.5 102.833,127.5 108.5,127.5 Z"/></g>
<g><path style="opacity:1" fill="#1c3a4c" d="M 72.5,131.5 C 74.5273,131.338 76.5273,131.505 78.5,132C 81.1667,134.333 81.1667,136.667 78.5,139C 76.5273,139.495 74.5273,139.662 72.5,139.5C 72.5,136.833 72.5,134.167 72.5,131.5 Z"/></g>
<g><path style="opacity:1" fill="#203d4f" d="M 118.5,131.5 C 124.472,130.309 126.805,132.476 125.5,138C 123.26,138.977 120.927,139.477 118.5,139.5C 118.5,136.833 118.5,134.167 118.5,131.5 Z"/></g>
</svg>
