<svg width="100.00000000000001" height="100.00000000000001" xmlns="http://www.w3.org/2000/svg" clip-rule="evenodd" version="1.1">

 <g>
  <title>Layer 1</title>
  <path id="svg_37" d="m50.33909,94.84869c-24.86188,0 -45,-20.13812 -45,-45c0,-24.86188 20.13812,-45 45,-45c24.86188,0 45,20.13812 45,45c0,24.86188 -20.13812,45 -45,45z" opacity="undefined" stroke-width="8" stroke="#fb0862" fill="none"/>
  <path stroke-width="2" id="svg_43" d="m26.10185,67.79626l30.50821,-21.69466l1.01695,-28.13554l-31.18638,21.01691l-0.33878,28.81329z" opacity="NaN" stroke="#fb0862" fill="none"/>
  <g stroke="#fb0862" fill="none" stroke-width="5" id="svg_7">
   <path stroke="#ffffff" id="svg_8" d="m89.00857,12.4492c1.788,-0.2852 3.455,0.0481 5,1c-4.078,8.4906 -8.412,16.8239 -13,25c-1.792,-3.8741 -3.292,-7.8741 -4.5,-12c-3.416,-2.292 -6.916,-4.4586 -10.5,-6.5c7.681,-2.6655 15.347,-5.1655 23,-7.5z" fill="#f10d61"/>
  </g>
  <path id="svg_44" d="m29.15269,70.16914l30.50821,-0.67776l26.44062,-21.35589l-27.11859,0.33898l-29.83024,21.69466z" opacity="NaN" stroke-width="2" fill="#fb0862"/>
  <path stroke="null" stroke-width="2" id="svg_46" d="m29.15269,53.559l14.43388,-9.74041l0.48113,-12.63221l-14.75474,9.43611l-0.16028,12.93651z" opacity="NaN" fill="#fb0862"/>
  <path stroke="null" stroke-width="2" id="svg_47" d="m39.32216,54.91493l14.43388,-9.74041l0.48114,-12.63221l-14.75474,9.43611l-0.16028,12.93651z" opacity="NaN" fill="#fb0862"/>
 </g>
</svg>