<svg width="400" height="600" xmlns="http://www.w3.org/2000/svg" clip-rule="evenodd" version="1.1">

 <g>
  <title>Layer 1</title>
  <path id="svg_50" d="m148.25489,358.25746c0,0 74.63237,0 89.55884,-84.58335c14.92647,-84.58335 -72.64217,-111.451 -73.12498,-111.47311c0.48281,0.02211 84.56861,45.29908 59.69116,106.99517c-24.87746,61.69609 -76.12501,89.06129 -76.12501,89.06129z" opacity="NaN" stroke-width="0" stroke="#000000" fill="#191919"/>
  <path transform="rotate(-57.4787 160.555 221.42)" id="svg_51" d="m114.9191,319.44863c0,0 74.63237,0 89.55884,-84.58335c14.92647,-84.58334 -72.64217,-111.451 -73.12498,-111.47311c0.48281,0.02211 84.56861,45.29908 59.69116,106.99517c-24.87746,61.69609 -76.12502,89.06129 -76.12502,89.06129z" opacity="NaN" stroke-width="0" stroke="#000000" fill="#191919"/>
  <path id="svg_40" d="m-7.33559,-3.67657c-9.95098,-11.44363 -56.7206,-29.85295 -57.20341,-29.87506c0.48281,0.02211 -42.80396,-11.91907 -40.31621,-60.67888c2.48775,-48.75981 36.32108,-71.14952 36.32108,-71.14952c0,0 19.40441,-13.93137 28.85785,-16.41912c9.45343,-2.48775 -14.42892,1.49265 -14.91174,1.47054c0.48281,0.02211 -40.31621,12.46084 -53.25249,51.26967c-12.93628,38.80883 -2.98529,63.68628 -3.46811,63.66417c0.48281,0.02211 13.41909,26.88976 12.93628,26.86765c0.48281,0.02211 31.33086,26.88976 30.84804,26.86765c0.48281,0.02211 32.8235,9.9731 32.34069,9.95098c0.48281,0.02211 37.799,9.47555 27.84801,-1.96808z" opacity="NaN" stroke="#000000" fill="#7f7f7f"/>
  <ellipse transform="rotate(-0.131823 142 268.502)" opacity="0.87" ry="90" rx="90" id="svg_41" cy="268.50245" cx="142" stroke="#191919" fill="#191919"/>
  <ellipse transform="rotate(-0.131823 139.512 269.498)" stroke-width="0" opacity="0.87" ry="80" rx="80" id="svg_42" cy="269.49754" cx="139.51225" stroke="#000000" fill="#7f7f7f"/>
  <g id="svg_43">
   <g id="svg_19">
    <path id="svg_20" d="m87.22303,327.00735c-7.667,0 -15.333,0 -23,0c0,-29.667 0,-59.333 0,-89c16.003,-0.167 32.003,0 48,0.5c3.719,1.263 6.219,3.763 7.5,7.5c0.667,13.667 0.667,27.333 0,41c-1.859,5.86 -5.693,9.693 -11.5,11.5c-6.992,0.5 -13.992,0.666 -21,0.5c0,9.333 0,18.667 0,28z" fill="#191919"/>
   </g>
   <g id="svg_27">
    <path id="svg_28" d="m86.38233,254.51471c4,0 8,0 12,0c0,8 0,16 0,24c-4,0 -8,0 -12,0c0,-8 0,-16 0,-24z" fill="#666666"/>
   </g>
  </g>
  <g id="svg_48">
   <g id="svg_45">
    <path id="svg_44" d="m202.15687,318.05147c-7.667,0 -15.333,0 -23,0c0,-29.667 0,-59.333 0,-89c16.003,-0.167 32.003,0 48,0.5c3.719,1.263 6.219,3.763 7.5,7.5c0.667,13.667 0.667,27.333 0,41c-1.859,5.86 -5.693,9.693 -11.5,11.5c-6.992,0.5 -13.992,0.666 -21,0.5c0,9.333 0,18.667 0,28z" fill="#191919"/>
   </g>
   <g id="svg_47">
    <path id="svg_46" d="m201.31617,245.55883c4,0 8,0 12,0c0,8 0,16 0,24c-4,0 -8,0 -12,0c0,-8 0,-16 0,-24z" fill="#666666"/>
   </g>
  </g>
  <g id="svg_21">
   <path id="svg_22" d="m121.7794,258.90442c17.667,0 35.333,0 53,0c0,6.333 0,12.667 0,19c-10,0 -20,0 -30,0c0,6 0,12 0,18c8.333,0 16.667,0 25,0c0,6.667 0,13.333 0,20c-8.333,0 -16.667,0 -25,0c0,10.667 0,21.333 0,32c-7.667,0 -15.333,0 -23,0c0,-29.667 0,-59.333 0,-89z" fill="#191919"/>
  </g>
 </g>
</svg>