<?xml version="1.0" standalone="no"?>
<!DOCTYPE svg PUBLIC "-//W3C//DTD SVG 20010904//EN"
 "http://www.w3.org/TR/2001/REC-SVG-20010904/DTD/svg10.dtd">
<svg version="1.0" xmlns="http://www.w3.org/2000/svg"
 width="400.000000pt" height="600.000000pt" viewBox="0 0 400.000000 600.000000"
 preserveAspectRatio="xMidYMid meet">

<g transform="translate(0.000000,600.000000) scale(0.100000,-0.100000)"
fill="#000000" stroke="none">
<path d="M0 3000 l0 -3000 2000 0 2000 0 0 3000 0 3000 -2000 0 -2000 0 0
-3000z m1915 1109 c78 -10 216 -54 290 -91 155 -78 322 -232 395 -365 l23 -41
136 -4 c151 -3 175 -11 211 -71 18 -29 20 -51 19 -222 -1 -189 -6 -226 -39
-271 -35 -47 -58 -54 -180 -54 l-115 0 0 -142 0 -143 -32 -3 c-26 -3 -40 -14
-76 -65 -124 -173 -274 -290 -470 -368 -80 -32 -237 -59 -340 -59 -287 1 -577
149 -762 390 -315 409 -228 1013 189 1322 80 60 200 123 291 154 123 41 307
55 460 33z m1523 -276 c-2 -19 2 -27 10 -25 35 7 20 -68 -22 -107 -22 -21 -55
-23 -98 -7 -10 3 -24 8 -32 10 -24 8 -14 88 14 117 12 13 19 17 15 9 -8 -13
-7 -13 8 -1 10 7 31 15 49 17 17 2 34 6 36 9 13 13 23 2 20 -22z"/>
<path d="M1688 4053 c7 -3 16 -2 19 1 4 3 -2 6 -13 5 -11 0 -14 -3 -6 -6z"/>
<path d="M1778 4053 c17 -2 47 -2 65 0 17 2 3 4 -33 4 -36 0 -50 -2 -32 -4z"/>
<path d="M1930 4041 c37 -12 109 -22 85 -12 -11 5 -40 11 -65 15 -30 4 -36 3
-20 -3z"/>
<path d="M1813 4033 c15 -2 39 -2 55 0 15 2 2 4 -28 4 -30 0 -43 -2 -27 -4z"/>
<path d="M1703 4023 c15 -2 39 -2 55 0 15 2 2 4 -28 4 -30 0 -43 -2 -27 -4z"/>
<path d="M1623 4013 c9 -2 25 -2 35 0 9 3 1 5 -18 5 -19 0 -27 -2 -17 -5z"/>
<path d="M2104 3991 c38 -17 71 -29 74 -27 5 6 -85 45 -117 52 -14 3 5 -8 43
-25z"/>
<path d="M1507 3988 c-32 -11 -57 -22 -54 -24 2 -2 35 7 73 20 38 14 62 24 54
24 -8 0 -41 -9 -73 -20z"/>
<path d="M1317 3898 c-157 -93 -302 -234 -371 -360 -27 -49 -27 -51 -6 -33
l23 20 -8 -25 c-5 -14 -11 -88 -15 -165 -4 -77 -8 -122 -10 -100 -1 22 -2 43
-2 46 1 3 -3 31 -7 62 -4 31 -4 54 1 51 4 -3 8 2 8 10 0 9 -4 16 -9 16 -13 0
-21 -28 -19 -71 0 -20 -2 -41 -6 -47 -8 -13 22 -104 38 -114 6 -4 12 -33 12
-65 1 -32 5 -69 8 -83 4 -14 8 -29 9 -35 2 -5 7 -16 11 -24 7 -11 6 -12 -5 -5
-9 5 -8 -1 4 -20 10 -15 20 -37 23 -49 2 -12 8 -23 14 -25 5 -2 10 -10 10 -18
0 -8 4 -14 10 -14 5 0 9 -3 8 -7 -3 -15 31 -83 41 -83 6 0 11 -11 11 -24 0
-45 43 -137 57 -122 4 3 104 -71 180 -134 7 -6 17 -10 22 -10 13 0 85 -42 89
-52 2 -4 10 -8 17 -8 8 0 21 -7 29 -16 9 -8 16 -13 16 -9 0 4 7 -1 16 -9 8 -9
20 -14 25 -11 5 4 9 1 9 -4 0 -6 7 -11 17 -11 9 0 13 -3 10 -7 -4 -3 -2 -12 4
-20 9 -10 8 -13 -2 -13 -8 0 -25 -3 -39 -6 -17 -4 -21 -3 -12 4 11 7 9 10 -7
15 -13 3 -19 1 -14 -5 4 -7 1 -8 -8 -2 -8 5 -22 7 -31 6 -10 -2 -18 2 -18 7 0
6 -9 11 -20 11 -11 0 -20 5 -20 11 0 5 -5 7 -10 4 -6 -3 -17 1 -26 9 -9 9 -19
14 -23 12 -4 -3 -31 13 -59 35 -29 21 -57 39 -62 39 -18 0 -160 132 -206 191
-25 33 -66 99 -90 147 -24 48 -44 83 -44 78 0 -28 87 -182 144 -252 257 -323
687 -435 1065 -276 137 58 291 179 379 297 l44 60 -48 5 -49 5 0 450 0 450 68
0 c37 0 67 2 67 5 0 13 -82 126 -120 166 -72 76 -180 157 -180 135 0 -6 6 -11
13 -11 6 0 38 -21 70 -46 49 -38 58 -49 53 -69 -4 -15 0 -29 10 -39 14 -15 14
-16 -5 -16 -12 0 -103 18 -203 41 -256 57 -496 95 -691 110 -107 8 -162 16
-152 21 8 5 20 6 27 2 6 -4 8 -3 4 4 -3 6 4 18 16 26 50 36 -4 13 -85 -36z
m277 -308 c14 -5 35 -24 46 -42 18 -30 20 -51 20 -233 0 -189 -2 -202 -23
-240 -12 -22 -38 -50 -56 -62 -30 -20 -46 -23 -142 -23 l-108 0 -3 -141 -3
-140 -113 -2 -112 -2 0 448 0 447 234 0 c129 0 246 -4 260 -10z m726 -85 l0
-95 -150 0 -150 0 0 -90 0 -90 125 0 125 0 0 -100 0 -100 -125 0 -125 0 0
-162 0 -163 -118 1 -117 2 -3 446 -2 446 270 0 270 0 0 -95z m-667 -1208 c3
-8 -4 -13 -22 -14 -17 0 -19 1 -7 4 15 4 16 7 5 14 -11 7 -11 9 2 9 9 0 19 -6
22 -13z"/>
<path d="M1330 3293 l0 -118 60 0 60 0 0 118 0 117 -60 0 -60 0 0 -117z"/>
<path d="M2210 3946 c0 -3 9 -10 20 -16 11 -6 20 -8 20 -6 0 3 -9 10 -20 16
-11 6 -20 8 -20 6z"/>
<path d="M910 3445 c-10 -11 -15 -13 -20 -5 -5 7 -10 1 -14 -15 -4 -15 -6 -28
-4 -30 2 -1 16 13 31 32 16 18 27 33 24 33 -2 0 -10 -7 -17 -15z"/>
<path d="M2652 3298 l-2 -128 68 2 67 2 -62 3 -62 4 -4 122 -3 122 -2 -127z"/>
<path d="M855 3358 c-3 -13 -8 -88 -10 -168 l-3 -145 8 125 c8 136 17 191 34
202 7 5 5 8 -5 8 -9 0 -20 -10 -24 -22z"/>
<path d="M851 3016 c-1 -23 30 -138 35 -133 2 2 -5 37 -15 78 -11 41 -20 65
-20 55z"/>
</g>
</svg>
