<?xml version="1.0" encoding="UTF-8"?>
<!DOCTYPE svg PUBLIC "-//W3C//DTD SVG 1.1//EN" "http://www.w3.org/Graphics/SVG/1.1/DTD/svg11.dtd">
<svg xmlns="http://www.w3.org/2000/svg" version="1.1" width="400px" height="600px" style="shape-rendering:geometricPrecision; text-rendering:geometricPrecision; image-rendering:optimizeQuality; fill-rule:evenodd; clip-rule:evenodd" xmlns:xlink="http://www.w3.org/1999/xlink">
<g><path style="opacity:1" fill="#0b8ad8" d="M -0.5,-0.5 C 132.833,-0.5 266.167,-0.5 399.5,-0.5C 399.5,199.5 399.5,399.5 399.5,599.5C 266.167,599.5 132.833,599.5 -0.5,599.5C -0.5,399.5 -0.5,199.5 -0.5,-0.5 Z"/></g>
<g><path style="opacity:1" fill="#fafd09" d="M 164.5,187.5 C 200.852,185.27 230.685,197.937 254,225.5C 257.005,229.506 259.505,233.84 261.5,238.5C 271.149,239.332 280.816,239.832 290.5,240C 294.49,241.99 296.99,245.157 298,249.5C 298.667,262.167 298.667,274.833 298,287.5C 296.718,293.113 293.551,297.28 288.5,300C 280.507,300.5 272.507,300.666 264.5,300.5C 264.5,309.833 264.5,319.167 264.5,328.5C 262.473,328.338 260.473,328.505 258.5,329C 235.102,366.196 201.436,382.196 157.5,377C 122.451,369.615 97.9513,349.449 84,316.5C 70.6128,273.531 80.7795,237.364 114.5,208C 129.53,196.979 146.197,190.146 164.5,187.5 Z"/></g>
<g><path style="opacity:1" fill="#139fc3" d="M 239.5,217.5 C 238.717,219.343 238.05,221.343 237.5,223.5C 238.09,224.799 239.09,225.632 240.5,226C 239.667,226.167 238.833,226.333 238,226.5C 203.701,217.608 168.868,212.108 133.5,210C 134.756,209.583 135.423,208.75 135.5,207.5C 141.843,203.722 148.51,200.722 155.5,198.5C 167.747,196.463 180.08,195.13 192.5,194.5C 210.518,197.677 226.185,205.344 239.5,217.5 Z"/></g>
<g><path style="opacity:1" fill="#52b399" d="M 154.5,197.5 C 145.405,200.214 136.405,203.214 127.5,206.5C 135.935,200.792 145.269,196.959 155.5,195C 166.127,193.522 176.794,193.188 187.5,194C 176.345,193.94 165.345,195.106 154.5,197.5 Z"/></g>
<g><path style="opacity:1" fill="#0b92d8" d="M 323.5,198.5 C 330.219,198.552 336.386,198.552 342,198.5C 343.895,198.615 345.562,199.282 347,200.5C 348.667,199.833 350.333,199.167 352,198.5C 357.674,200.253 362.841,202.92 367.5,206.5C 368.086,206.291 368.586,205.957 369,205.5C 372.452,214.764 370.952,222.764 364.5,229.5C 363.914,229.291 363.414,228.957 363,228.5C 362.228,229.849 361.061,230.682 359.5,231C 360.147,234.775 358.981,235.275 356,232.5C 355.781,233.938 355.281,235.271 354.5,236.5C 353.914,236.291 353.414,235.957 353,235.5C 352.057,238.109 350.39,240.109 348,241.5C 347.667,241.167 347.333,240.833 347,240.5C 345.684,243.047 343.851,243.713 341.5,242.5C 340.281,243.263 339.281,244.263 338.5,245.5C 337.117,242.924 336.283,243.258 336,246.5C 334.345,246.198 333.012,244.864 332,242.5C 329.266,243.362 329.099,244.195 331.5,245C 330,245.5 328.5,246 327,246.5C 323.799,245.209 320.799,243.543 318,241.5C 316.334,242.34 316.167,241.84 317.5,240C 314.491,240.16 312.325,238.993 311,236.5C 310.548,233.851 309.714,231.351 308.5,229C 310.244,226.037 310.744,222.871 310,219.5C 309.667,220.833 309.333,222.167 309,223.5C 308.727,221.671 307.893,220.171 306.5,219C 308.634,216.319 310.634,212.819 312.5,208.5C 315.124,205.842 317.791,203.175 320.5,200.5C 322.137,201.444 323.137,200.777 323.5,198.5 Z"/></g>
<g><path style="opacity:1" fill="#b3e73b" d="M 154.5,197.5 C 154.5,198.167 154.833,198.5 155.5,198.5C 148.51,200.722 141.843,203.722 135.5,207.5C 128.65,210.683 122.317,214.683 116.5,219.5C 116.062,219.565 115.728,219.399 115.5,219C 117.282,215.545 119.948,213.212 123.5,212C 123.167,211.667 122.833,211.333 122.5,211C 123.71,209.961 124.71,208.794 125.5,207.5C 125.842,206.662 126.508,206.328 127.5,206.5C 136.405,203.214 145.405,200.214 154.5,197.5 Z"/></g>
<g><path style="opacity:1" fill="#0b9ad0" d="M 341.5,213.5 C 343.582,214.585 343.916,216.085 342.5,218C 343.563,219.188 344.897,219.688 346.5,219.5C 344.892,230.639 338.892,233.972 328.5,229.5C 326.872,225.645 327.205,221.978 329.5,218.5C 331.799,217.365 333.966,216.032 336,214.5C 338.118,215.739 339.951,215.405 341.5,213.5 Z"/></g>
<g><path style="opacity:1" fill="#0f8ad8" d="M 135.5,207.5 C 135.423,208.75 134.756,209.583 133.5,210C 168.868,212.108 203.701,217.608 238,226.5C 238.833,226.333 239.667,226.167 240.5,226C 239.09,225.632 238.09,224.799 237.5,223.5C 238.05,221.343 238.717,219.343 239.5,217.5C 246.281,223.296 251.614,230.296 255.5,238.5C 251.217,239.492 246.884,239.826 242.5,239.5C 242.5,269.5 242.5,299.5 242.5,329.5C 245.518,329.335 248.518,329.502 251.5,330C 234.388,355.727 210.388,369.893 179.5,372.5C 181.129,371.662 183.462,370.828 186.5,370C 181.388,364.754 175.055,362.087 167.5,362C 164.678,360.426 161.844,358.926 159,357.5C 158.667,357.833 158.333,358.167 158,358.5C 152.425,354.279 145.925,350.779 138.5,348C 137.833,347 137.167,346 136.5,345C 130.603,340.099 124.436,335.599 118,331.5C 115.536,330.839 113.036,330.339 110.5,330C 118.011,329.829 125.345,329.329 132.5,328.5C 132.5,319.167 132.5,309.833 132.5,300.5C 139.508,300.666 146.508,300.5 153.5,300C 159.307,298.193 163.141,294.36 165,288.5C 165.667,274.833 165.667,261.167 165,247.5C 163.719,243.763 161.219,241.263 157.5,240C 141.503,239.5 125.503,239.333 109.5,239.5C 109.5,269.167 109.5,298.833 109.5,328.5C 109.5,328.833 109.5,329.167 109.5,329.5C 108.673,324.349 108.173,319.016 108,313.5C 105.748,311.036 103.748,308.369 102,305.5C 93.4365,287.229 91.2698,268.229 95.5,248.5C 95.1543,247.304 94.6543,247.304 94,248.5C 93.5357,247.906 93.369,247.239 93.5,246.5C 99.3508,235.98 107.017,226.98 116.5,219.5C 122.317,214.683 128.65,210.683 135.5,207.5 Z"/></g>
<g><path style="opacity:1" fill="#7ecf64" d="M 125.5,207.5 C 124.71,208.794 123.71,209.961 122.5,211C 122.833,211.333 123.167,211.667 123.5,212C 119.948,213.212 117.282,215.545 115.5,219C 115.728,219.399 116.062,219.565 116.5,219.5C 107.017,226.98 99.3508,235.98 93.5,246.5C 92.7638,248.229 91.4305,249.229 89.5,249.5C 96.8342,231.499 108.834,217.499 125.5,207.5 Z"/></g>
<g><path style="opacity:1" fill="#fcfe05" d="M 132.5,328.5 C 124.833,328.5 117.167,328.5 109.5,328.5C 109.5,298.833 109.5,269.167 109.5,239.5C 125.503,239.333 141.503,239.5 157.5,240C 161.219,241.263 163.719,243.763 165,247.5C 165.667,261.167 165.667,274.833 165,288.5C 163.141,294.36 159.307,298.193 153.5,300C 146.508,300.5 139.508,300.666 132.5,300.5C 132.5,309.833 132.5,319.167 132.5,328.5 Z"/></g>
<g><path style="opacity:1" fill="#fdfe03" d="M 178.5,239.5 C 196.167,239.5 213.833,239.5 231.5,239.5C 231.5,245.833 231.5,252.167 231.5,258.5C 221.5,258.5 211.5,258.5 201.5,258.5C 201.5,264.5 201.5,270.5 201.5,276.5C 209.833,276.5 218.167,276.5 226.5,276.5C 226.5,283.167 226.5,289.833 226.5,296.5C 218.167,296.5 209.833,296.5 201.5,296.5C 201.5,307.167 201.5,317.833 201.5,328.5C 193.833,328.5 186.167,328.5 178.5,328.5C 178.5,298.833 178.5,269.167 178.5,239.5 Z"/></g>
<g><path style="opacity:1" fill="#1689d6" d="M 132.5,257.5 C 136.5,257.5 140.5,257.5 144.5,257.5C 144.5,265.833 144.5,274.167 144.5,282.5C 140.5,282.5 136.5,282.5 132.5,282.5C 132.5,274.167 132.5,265.833 132.5,257.5 Z"/></g>
<g><path style="opacity:1" fill="#0b91d8" d="M 265.5,257.5 C 265.5,265.5 265.5,273.5 265.5,281.5C 269.5,281.5 273.5,281.5 277.5,281.5C 273.366,282.485 269.032,282.818 264.5,282.5C 264.174,273.983 264.507,265.65 265.5,257.5 Z"/></g>
<g><path style="opacity:1" fill="#27a9ae" d="M 265.5,257.5 C 269.5,257.5 273.5,257.5 277.5,257.5C 277.5,265.5 277.5,273.5 277.5,281.5C 273.5,281.5 269.5,281.5 265.5,281.5C 265.5,273.5 265.5,265.5 265.5,257.5 Z"/></g>
<g><path style="opacity:1" fill="#119bcd" d="M 93.5,246.5 C 93.369,247.239 93.5357,247.906 94,248.5C 94.6543,247.304 95.1543,247.304 95.5,248.5C 91.2698,268.229 93.4365,287.229 102,305.5C 103.748,308.369 105.748,311.036 108,313.5C 108.173,319.016 108.673,324.349 109.5,329.5C 111.523,332.89 113.523,336.223 115.5,339.5C 118.889,341.375 122.223,343.542 125.5,346C 127.049,347.214 128.215,348.714 129,350.5C 130.243,349.664 131.41,349.997 132.5,351.5C 133.641,352.425 133.641,353.259 132.5,354C 133.328,354.915 134.328,355.581 135.5,356C 135.167,356.333 134.833,356.667 134.5,357C 135.5,357.333 136.5,357.667 137.5,358C 135.899,358.273 134.399,358.773 133,359.5C 131.513,358.747 131.346,357.914 132.5,357C 130.919,356.293 129.419,355.46 128,354.5C 127.333,355.167 126.667,355.833 126,356.5C 124.64,354.895 123.14,353.395 121.5,352C 121.833,351.667 122.167,351.333 122.5,351C 120.152,350.89 118.652,349.723 118,347.5C 116.927,348.28 115.76,348.113 114.5,347C 113.929,345.795 113.262,344.628 112.5,343.5C 109.749,344.341 107.582,343.341 106,340.5C 105.601,340.728 105.435,341.062 105.5,341.5C 82.5409,314.024 77.2075,283.358 89.5,249.5C 91.4305,249.229 92.7638,248.229 93.5,246.5 Z"/></g>
<g><path style="opacity:1" fill="#0e96d5" d="M 109.5,328.5 C 117.167,328.5 124.833,328.5 132.5,328.5C 125.345,329.329 118.011,329.829 110.5,330C 113.036,330.339 115.536,330.839 118,331.5C 124.436,335.599 130.603,340.099 136.5,345C 137.167,346 137.833,347 138.5,348C 145.925,350.779 152.425,354.279 158,358.5C 158.333,358.167 158.667,357.833 159,357.5C 161.844,358.926 164.678,360.426 167.5,362C 175.055,362.087 181.388,364.754 186.5,370C 183.462,370.828 181.129,371.662 179.5,372.5C 149.861,374.28 125.194,363.947 105.5,341.5C 105.435,341.062 105.601,340.728 106,340.5C 107.582,343.341 109.749,344.341 112.5,343.5C 113.262,344.628 113.929,345.795 114.5,347C 115.76,348.113 116.927,348.28 118,347.5C 118.652,349.723 120.152,350.89 122.5,351C 122.167,351.333 121.833,351.667 121.5,352C 123.14,353.395 124.64,354.895 126,356.5C 126.667,355.833 127.333,355.167 128,354.5C 129.419,355.46 130.919,356.293 132.5,357C 131.346,357.914 131.513,358.747 133,359.5C 134.399,358.773 135.899,358.273 137.5,358C 136.5,357.667 135.5,357.333 134.5,357C 134.833,356.667 135.167,356.333 135.5,356C 134.328,355.581 133.328,354.915 132.5,354C 133.641,353.259 133.641,352.425 132.5,351.5C 131.41,349.997 130.243,349.664 129,350.5C 128.215,348.714 127.049,347.214 125.5,346C 122.223,343.542 118.889,341.375 115.5,339.5C 113.523,336.223 111.523,332.89 109.5,329.5C 109.5,329.167 109.5,328.833 109.5,328.5 Z"/></g>
</svg>
